<svg width="18" height="21" viewBox="0 0 18 21" fill="none" xmlns="http://www.w3.org/2000/svg">
<path d="M17.3929 16.941C16.826 16.2453 15.9651 15.8609 15.156 15.611C14.7504 15.4857 14.3536 15.3937 14.0043 15.3154C13.8178 15.2736 13.6459 15.2358 13.4936 15.1997L12.7285 13.7749L12.7276 13.7751C12.6227 13.5519 12.4385 13.391 12.2436 13.3061C12.0953 13.2402 11.9501 13.2133 11.8272 13.2036C12.2811 12.7868 12.9051 12.1505 13.166 11.1598C13.26 11.125 13.3531 11.0859 13.4428 11.0345C13.6659 10.9085 13.8551 10.7254 14.0155 10.4763C14.1772 10.2262 14.3199 9.90637 14.4726 9.4689C14.5498 9.24696 14.5855 9.05431 14.5855 8.88271C14.5858 8.74063 14.5591 8.61221 14.5107 8.49913C14.525 8.40762 14.5284 8.30008 14.5116 8.18036C14.5212 8.17708 14.5318 8.17552 14.5411 8.17199C14.9677 8.00904 15.3102 7.73477 15.5569 7.43429C15.801 7.13151 15.9568 6.80437 15.9602 6.48536C15.9605 6.30181 15.9016 6.10609 15.7303 5.95306C15.6462 5.87755 15.537 5.81808 15.417 5.78096C15.2965 5.74359 15.1663 5.72682 15.0298 5.72682C14.8694 5.72682 14.6472 5.73117 14.3869 5.73797C14.3559 5.5331 14.3056 5.33635 14.2398 5.14694C14.4284 4.89326 14.4883 4.71456 14.156 4.71456C15.0297 4.32409 15.0297 3.73839 14.7914 3.67334C15.8239 3.08764 16.9359 1.20044 15.268 1.65596C14.5066 1.8644 13.9112 2.81944 13.4806 3.81415C13.4046 3.71883 13.327 3.62605 13.2479 3.5368C12.9382 3.18624 12.6125 2.8797 12.3286 2.61478C12.0451 2.35092 11.8028 2.12518 11.6672 1.95689C11.3724 1.59645 11.1391 1.1381 10.7919 0.739759C10.6173 0.540957 10.4085 0.355117 10.1361 0.218125C9.86454 0.0803547 9.53135 -0.000773729 9.1522 5.56352e-06C8.77306 -0.000773729 8.43987 0.0803547 8.1684 0.218125C7.75917 0.425294 7.49546 0.735165 7.27049 1.04733C7.04653 1.36102 6.85726 1.68668 6.6373 1.95714C6.50169 2.12514 6.2594 2.35088 5.97582 2.61478C5.54982 3.01234 5.02981 3.50243 4.61192 4.09679C4.27713 4.57269 4.01096 5.12127 3.91725 5.73793C3.65695 5.73133 3.43509 5.72678 3.2747 5.72678C3.1084 5.72629 2.94581 5.76135 2.80965 5.82694C2.60331 5.92509 2.4668 6.0809 2.3846 6.2464C2.3018 6.41317 2.26736 6.59516 2.26701 6.78305C2.26857 7.16182 2.40758 7.5698 2.69887 7.90867C2.84504 8.0772 3.03206 8.22818 3.26293 8.33778C3.33462 8.3721 3.41181 8.40008 3.4916 8.42522C3.48259 8.46997 3.47453 8.51623 3.46647 8.56299C3.43358 8.66007 3.41436 8.76659 3.41466 8.88303C3.41466 8.90157 3.41992 8.92319 3.42057 8.94201C3.39479 9.25824 3.39419 9.60905 3.43358 10.0074C3.51488 9.95911 3.59552 9.9108 3.67622 9.86277C3.8261 10.2303 3.97497 10.4958 4.15493 10.7037C4.27437 10.8409 4.40993 10.951 4.55765 11.0347C4.64731 11.086 4.74042 11.1251 4.83438 11.16C5.09529 12.1499 5.71862 12.7861 6.1725 13.203C6.04655 13.2117 5.89668 13.2381 5.7431 13.3062C5.54797 13.3911 5.36365 13.552 5.25913 13.7752L5.25823 13.775L4.49438 15.1975C4.24679 15.2534 3.95234 15.3144 3.62966 15.3905C2.87483 15.5692 1.98253 15.8269 1.25653 16.3368C0.894101 16.5921 0.576128 16.9124 0.352115 17.3105C0.128101 17.7083 -0.000349697 18.1808 7.15069e-07 18.7343C7.15069e-07 18.8626 0.00680876 18.9953 0.0207752 19.1326C0.0313376 19.2287 0.0759901 19.307 0.128452 19.3716C0.228319 19.4916 0.360825 19.581 0.52682 19.6728C0.817511 19.8304 1.22023 19.9845 1.73589 20.1357C3.2791 20.5867 5.8343 20.9995 9.00017 21C11.5725 21 13.7436 20.7265 15.2934 20.3828C16.0687 20.2105 16.6877 20.0221 17.135 19.8337C17.359 19.7387 17.5402 19.6451 17.6839 19.5424C17.7559 19.4906 17.8188 19.4362 17.8719 19.3716C17.9243 19.307 17.969 19.2288 17.9792 19.1327C17.9932 18.9954 18 18.8632 18 18.7351C18.0013 17.9977 17.7701 17.4034 17.3929 16.941ZM12.3255 14.4467L12.7896 15.3108L10.7109 17.5297L9.94643 16.2287C10.1847 16.0749 10.6551 15.7668 11.1322 15.4256C11.4701 15.1837 11.8089 14.9276 12.0701 14.6968C12.1691 14.6094 12.2519 14.5271 12.3255 14.4467ZM9.52915 17.7631L10.0262 17.3246L10.6076 18.3139C10.3395 18.1187 9.98028 17.9314 9.52915 17.7631ZM10.6852 19.1518C10.682 19.2148 10.6647 19.2461 10.6011 19.2904C10.526 19.3376 10.4807 19.3452 10.4441 19.3461C10.4099 19.3458 10.3696 19.3372 10.3135 19.3074C10.2158 19.2566 10.0914 19.1371 9.98058 18.9841C9.81834 18.7629 9.67872 18.4787 9.58035 18.2459C9.89868 18.3834 10.1518 18.5275 10.3287 18.665C10.5939 18.8689 10.6895 19.0562 10.6852 19.1518ZM12.1322 14.0865L12.1015 14.118H12.1012L12.1322 14.0862V14.0865ZM11.9088 13.8089C11.9684 13.8376 12.0258 13.875 12.0813 13.991L12.0847 13.9981L12.1024 14.0312L12.0475 14.0248L12.0472 14.0261C12.0453 14.0395 12.0054 14.1082 11.9309 14.1882C11.8697 14.2556 11.7866 14.3347 11.6901 14.4196C11.6901 14.2218 11.6901 13.9951 11.6901 13.7724C11.6966 13.7721 11.7015 13.7716 11.7084 13.7716C11.7723 13.7713 11.8489 13.7817 11.9088 13.8089ZM15.0297 6.29948C15.0973 6.29948 15.1416 6.30784 15.1683 6.31625C15.2084 6.33024 15.2146 6.33709 15.2304 6.35718C15.245 6.37728 15.2614 6.4192 15.2611 6.48532C15.2646 6.63633 15.1637 6.88924 14.976 7.11576C14.8007 7.33134 14.554 7.52198 14.2941 7.63051C14.2187 7.51538 14.1234 7.39639 13.9971 7.27412C13.7701 7.05424 13.2733 6.71004 12.6032 6.36789C12.6128 6.36736 12.6221 6.36711 12.6317 6.36682C13.645 6.33303 14.6018 6.29948 15.0297 6.29948ZM5.62306 3.87231C5.90909 3.54796 6.21876 3.25589 6.50079 2.99277C6.78312 2.72868 7.03722 2.4976 7.21933 2.2739C7.56003 1.85062 7.79516 1.39461 8.07964 1.07428C8.22081 0.913623 8.36818 0.789305 8.53418 0.706208C8.70077 0.623316 8.88789 0.57377 9.1522 0.572744C9.41651 0.573729 9.60333 0.623316 9.77023 0.706208C10.0184 0.829254 10.2282 1.05217 10.4311 1.33715C10.6349 1.62061 10.8285 1.9564 11.0851 2.2739C11.2672 2.4976 11.5213 2.72868 11.8036 2.99277C12.2265 3.38706 12.7117 3.84819 13.0868 4.38254C13.1237 4.43541 13.1588 4.4893 13.1935 4.5432C13.0229 5.01803 12.8917 5.45985 12.7998 5.78801C12.7344 5.79031 12.6695 5.79232 12.6035 5.79462C12.193 5.80832 11.7732 5.82181 11.373 5.83325C9.76087 5.24755 7.68373 4.92907 5.81879 5.79847C5.77969 5.7972 5.73999 5.79593 5.7009 5.79466C5.32426 5.78219 4.95692 5.76947 4.61998 5.75881C4.74347 5.03682 5.1462 4.41326 5.62306 3.87231ZM3.6554 7.85671C3.64208 7.85084 3.62656 7.84834 3.61355 7.84223C3.41717 7.7497 3.25272 7.58982 3.13889 7.39508C3.0247 7.20165 2.96548 6.97668 2.96573 6.78296C2.96448 6.61214 3.01384 6.46899 3.07406 6.39479C3.10385 6.35665 3.13298 6.33532 3.16091 6.32183C3.18975 6.30862 3.22018 6.29997 3.27475 6.29948C3.59152 6.29948 4.19993 6.31801 4.90546 6.34115C4.86517 6.37064 4.82387 6.39734 4.78387 6.4281C4.49838 6.64745 3.97001 7.03841 3.6554 7.85671ZM5.47849 10.9023L5.44314 10.7384L5.25202 10.6825C5.13043 10.6469 5.03767 10.6105 4.95667 10.5645C4.83723 10.4953 4.72896 10.4011 4.60236 10.2079C4.49844 10.0482 4.38921 9.81794 4.27222 9.50782C4.79098 9.19869 5.18099 8.96609 5.18099 8.96609C5.18099 8.96609 4.94271 9.72541 5.81638 10.8317C8.27858 9.98573 10.7408 9.16132 10.6613 7.46936C10.5819 8.90104 12.7264 9.29151 12.7264 9.29151L12.8852 10.0724L13.807 8.61992C13.8141 8.62829 13.8216 8.63415 13.8284 8.64432C13.8576 8.68932 13.8861 8.76073 13.8865 8.88279C13.8868 8.98828 13.8638 9.12962 13.8005 9.31189C13.6078 9.86785 13.435 10.1914 13.2765 10.3709C13.1971 10.4616 13.1245 10.5184 13.0438 10.5646C12.9628 10.6106 12.8701 10.6469 12.7485 10.6825L12.5571 10.7384L12.522 10.9024C12.2982 11.9284 11.6529 12.5057 11.1764 12.9406L11.2288 12.9793H11.1819C11.1819 13.4531 11.1819 14.4275 11.1819 14.8283C10.827 15.097 10.4299 15.3729 10.1066 15.5894C9.92386 15.7119 9.76527 15.8157 9.65234 15.8884C9.53971 15.9613 9.47393 16.0028 9.47363 16.003L9.31044 16.106L9.7895 16.9214L9.06595 17.5598L8.22641 16.8716L8.67629 16.1059L8.5131 16.003C8.5128 16.0027 8.47245 15.9773 8.39982 15.9308C8.14667 15.7681 7.51032 15.3525 6.94256 14.933C6.90036 14.902 6.85971 14.8707 6.81846 14.8398C6.81846 14.5101 6.81846 13.4635 6.81846 12.9447L6.82407 12.9406C6.82216 12.9391 6.82036 12.937 6.81846 12.9355C6.81846 12.9287 6.81846 12.9208 6.81846 12.9142H6.79523C6.32173 12.482 5.69784 11.9085 5.47849 10.9023ZM5.90198 13.9981L5.90544 13.9907C5.96095 13.875 6.01832 13.8376 6.07789 13.8089C6.13746 13.7817 6.21415 13.7713 6.27803 13.7715C6.29169 13.7715 6.29885 13.7728 6.31031 13.7733C6.31031 14.0042 6.31031 14.235 6.31031 14.4307C6.27372 14.3987 6.23613 14.3664 6.20389 14.3362C6.10958 14.2487 6.03514 14.1694 5.99014 14.1097C5.96716 14.0799 5.95229 14.055 5.94483 14.0397L5.93893 14.025L5.88461 14.0306L5.90198 13.9981ZM5.6609 14.4472C5.67922 14.4673 5.69504 14.4866 5.71516 14.5075C6.06392 14.8603 6.6782 15.3077 7.21433 15.6778C7.55563 15.9132 7.86184 16.1135 8.04025 16.2287L7.27545 17.5297L5.19706 15.3108L5.6609 14.4472ZM17.284 19.059L17.2539 19.0883C17.2024 19.131 17.0984 19.195 16.9523 19.2634C16.437 19.5072 15.4199 19.8064 14.0548 20.0339C12.6875 20.2632 10.9644 20.4274 9.00017 20.4274C6.48927 20.4274 4.37149 20.1587 2.8897 19.83C2.14943 19.6661 1.56709 19.4858 1.18544 19.3244C0.994919 19.2443 0.854705 19.168 0.777164 19.1116C0.743975 19.0882 0.725353 19.0702 0.716042 19.0598C0.705179 18.9469 0.698972 18.8378 0.698972 18.7341C0.700224 18.0913 0.891948 17.622 1.18825 17.2539C1.63157 16.7035 2.3433 16.3669 3.08698 16.1377C3.45711 16.023 3.83155 15.9361 4.17536 15.8608C4.44557 15.8011 4.69472 15.7495 4.91532 15.694L7.37501 18.3202L7.99239 17.2691L8.63154 17.7928C8.18106 17.9674 7.82299 18.1613 7.56364 18.3627C7.24346 18.6143 7.05299 18.8767 7.04863 19.1517C7.04553 19.3307 7.1504 19.5079 7.32756 19.6182C7.46842 19.7095 7.63287 19.7628 7.79791 19.7623C7.95119 19.7626 8.09141 19.7181 8.20749 19.6553C8.41133 19.5442 8.56301 19.3798 8.69737 19.1982C8.71599 19.1728 8.73211 19.1456 8.74978 19.1197C8.74292 19.1606 8.73581 19.202 8.72835 19.2432C8.69612 19.4214 8.65577 19.5986 8.60891 19.744C8.56456 19.8882 8.50374 20.0036 8.4724 20.0343L8.87883 20.2844C8.9418 20.2148 8.98435 20.1386 9.0234 20.0539C9.15466 19.7603 9.23034 19.3452 9.28185 18.9905C9.29051 18.9285 9.29832 18.8698 9.30543 18.8131C9.42117 19.0272 9.55893 19.2427 9.72988 19.4191C9.81923 19.5106 9.9176 19.5923 10.0345 19.6553C10.1506 19.7181 10.2908 19.7626 10.4441 19.7623C10.6091 19.7628 10.7739 19.7095 10.9147 19.6182C11.0919 19.5076 11.1967 19.3307 11.1937 19.1517C11.1893 18.8767 10.9985 18.6143 10.6783 18.3627C10.6588 18.3477 10.6339 18.333 10.6135 18.318L13.0732 15.692C13.3896 15.7764 13.7647 15.8511 14.173 15.9488C14.8949 16.1196 15.6923 16.3601 16.2865 16.7777C16.5843 16.9866 16.8337 17.2376 17.0128 17.5533C17.1912 17.8695 17.3007 18.2534 17.301 18.7348C17.301 18.8381 17.2945 18.9466 17.284 19.059ZM8.66198 18.2458C8.60241 18.3869 8.52892 18.5456 8.44232 18.6993C8.3378 18.8869 8.21365 19.0654 8.0902 19.1841C8.02908 19.2436 7.96891 19.2873 7.9183 19.3127C7.86714 19.3384 7.8302 19.3458 7.79791 19.346C7.76162 19.3452 7.71632 19.3376 7.64093 19.2903C7.5773 19.2461 7.56023 19.2151 7.55683 19.1518C7.55247 19.0562 7.64834 18.8688 7.91365 18.665C8.0905 18.5272 8.3437 18.3831 8.66198 18.2458Z" fill="white"/>
</svg>
