<svg width="26" height="19" viewBox="0 0 26 19" fill="none" xmlns="http://www.w3.org/2000/svg">
<path d="M24.2726 0H1.72737C0.77284 0 0 0.667593 0 1.49057V13.934C0 14.757 0.77284 15.4246 1.72737 15.4246H11.1719V15.7566C11.1719 16.5796 10.399 17.2472 9.4445 17.2472H6.90625V19H10.6228H15.3772H19.0938V17.2472H16.5555C15.601 17.2472 14.8281 16.5797 14.8281 15.7566V15.4246H24.2726C25.2272 15.4246 26 14.757 26 13.934V1.49057C26 0.667593 25.2272 0 24.2726 0ZM23.5625 12.123C23.5625 12.3976 23.3046 12.6201 22.9864 12.6201H3.01356C2.69537 12.6201 2.4375 12.3976 2.4375 12.123V2.60044C2.4375 2.32586 2.69537 2.10335 3.01356 2.10335H22.9865C23.3047 2.10335 23.5626 2.32586 23.5626 2.60044V12.123H23.5625Z" fill="white"/>
</svg>
