<svg width="22" height="21" viewBox="0 0 22 21" fill="none" xmlns="http://www.w3.org/2000/svg">
<path d="M21.9622 0C21.9622 0 21.0273 1.16063 14.9195 2.87818C8.6931 4.62908 4.86037 11.7543 4.86037 11.7543C3.93717 13.2136 0.289997 19.2788 0.289997 19.2788C-0.714184 20.8445 1.12669 21.7699 2.2056 20.153C4.27688 17.048 5.61216 14.2108 8.76074 14.13C13.3515 14.0121 16.4915 10.6802 15.5038 10.834C14.2031 11.3051 11.3376 10.8699 13.026 10.6539C17.0789 10.3835 19.5748 7.85266 18.7617 7.68027C17.3242 8.14043 15.9851 7.70397 15.7224 7.57133C22.8752 6.84903 21.9622 0 21.9622 0Z" fill="white"/>
</svg>
