<svg width="24" height="18" viewBox="0 0 24 18" fill="none" xmlns="http://www.w3.org/2000/svg">
<path d="M23.4756 3.66247C23.3394 3.60241 23.1885 3.57048 23.0376 3.57048C22.8333 3.57048 22.6384 3.62604 22.4744 3.73018L19.9233 5.33687L1.25977 0.0408859C1.16306 0.0134106 1.06345 0 0.962391 0C0.758062 0 0.5625 0.0555639 0.396938 0.160354C0.147938 0.316865 0 0.571135 0 0.839428V17.1612C0 17.4282 0.147937 17.6825 0.396984 17.8409C0.5625 17.9451 0.758812 18 0.962438 18C1.0635 18 1.16311 17.9866 1.25981 17.9591L19.9219 12.6637L22.4737 14.2698C22.6385 14.3746 22.8325 14.4295 23.0369 14.4295C23.1885 14.4295 23.3394 14.3975 23.4756 14.3375C23.7993 14.1925 24 13.9063 24 13.5901V4.41056C24 4.0937 23.7993 3.8075 23.4756 3.66247ZM22.0752 11.9482L20.6536 11.0526C20.4888 10.9485 20.294 10.8935 20.0903 10.8935C19.9893 10.8935 19.8882 10.9076 19.7923 10.935L1.92483 16.0049V1.99511L19.7915 7.06495C19.8882 7.09308 19.9893 7.10649 20.0903 7.10649C20.294 7.10649 20.4888 7.05154 20.6536 6.94741L22.0752 6.05176V11.9482Z" fill="white"/>
</svg>
