<svg width="20" height="19" viewBox="0 0 20 19" fill="none" xmlns="http://www.w3.org/2000/svg">
<path d="M19.8709 14.7666C19.777 14.5444 19.6191 14.3244 19.3953 14.1399C19.1564 13.9437 18.8391 13.7339 18.47 13.5077C17.9188 13.1708 17.2607 12.8097 16.6719 12.5109C16.3775 12.3615 16.1007 12.2279 15.8606 12.1205C15.6167 12.0123 15.4242 11.932 15.2351 11.8777C15.0773 11.8328 14.9148 11.8129 14.757 11.8129C14.281 11.8158 13.8576 11.9804 13.5031 12.217C13.1502 12.4569 12.8579 12.7797 12.6888 13.1683C12.6675 13.2179 12.647 13.2562 12.6282 13.288C12.1171 13.0026 10.859 12.1932 9.00797 10.2899C7.7365 8.98219 7.00326 7.99909 6.59193 7.35502C6.40487 7.06122 6.28667 6.84157 6.21194 6.68998C6.25164 6.67914 6.29884 6.66827 6.35939 6.65851C6.87337 6.57205 7.32312 6.34876 7.66888 6.04914C7.84134 5.89825 7.98827 5.72636 8.09645 5.53283C8.20372 5.3396 8.27348 5.12214 8.27348 4.88984C8.27348 4.82764 8.26847 4.76537 8.25807 4.70244C8.23845 4.58736 8.20543 4.4741 8.16205 4.33984C8.01003 3.87705 7.71565 3.1874 7.3862 2.50678C7.22171 2.16701 7.04882 1.83232 6.88052 1.53381C6.71141 1.23456 6.55107 0.974754 6.39116 0.767089C6.16154 0.468952 5.8404 0.265592 5.51805 0.151963C5.19443 0.0369239 4.87003 0.000333985 4.57604 0C4.30209 0 4.05199 0.0318399 3.83774 0.0767052C3.73042 0.0991193 3.63227 0.12517 3.54212 0.154153C3.45108 0.183803 3.37005 0.214196 3.28243 0.259395L3.28368 0.25869C3.28368 0.25869 3.28243 0.259395 3.28201 0.259766L3.25986 0.227926L3.26573 0.267708C3.23314 0.283999 3.16218 0.318733 3.07533 0.363969C2.69077 0.564435 1.93829 0.992121 1.26479 1.69876C0.5921 2.40254 -0.00209287 3.41062 5.54122e-06 4.69984C5.54122e-06 4.97482 0.0267281 5.26212 0.0839419 5.56067C0.709482 8.81861 2.4787 11.5103 4.49591 13.5847C6.51313 15.6588 9.27447 17.6272 12.8743 18.7134C13.537 18.9132 14.1708 19 14.7609 19C16.1797 18.9996 17.3143 18.5039 18.1005 18.0002C18.4956 17.7477 18.8078 17.4911 19.0363 17.2834C19.1503 17.1796 19.2434 17.088 19.3139 17.0164C19.3832 16.9462 19.4363 16.8894 19.4459 16.88C19.529 16.795 19.5866 16.7136 19.6476 16.6162C19.8213 16.3286 19.9958 15.9142 20 15.4203C19.9999 15.2123 19.9653 14.9891 19.8709 14.7666ZM1.28265 4.69987C1.28308 4.1318 1.42714 3.65164 1.64889 3.23442C1.98001 2.61028 2.49651 2.12901 2.96129 1.79324C3.19306 1.62536 3.41018 1.49473 3.58096 1.39992C3.66614 1.35249 3.74006 1.31453 3.79894 1.28451C3.85821 1.25445 3.8983 1.23526 3.93966 1.21392C3.9484 1.20851 4.0457 1.17451 4.16304 1.15203C4.2829 1.12854 4.43069 1.11117 4.57604 1.11154C4.74348 1.1108 4.90463 1.13432 5.02861 1.17952C5.15434 1.22584 5.2441 1.28302 5.32594 1.38689C5.44328 1.53707 5.61655 1.8164 5.79445 2.14133C6.06339 2.63125 6.35356 3.23405 6.58114 3.75945C6.69471 4.02177 6.79329 4.26532 6.86511 4.46289C6.93731 4.65757 6.98287 4.81855 6.9887 4.86126L6.9908 4.88984C6.99122 4.92672 6.97915 4.98176 6.94155 5.04941C6.88643 5.15035 6.77158 5.27266 6.6213 5.36959C6.47138 5.4673 6.29014 5.53896 6.11979 5.56645C5.89179 5.60408 5.69638 5.65945 5.52726 5.73397C5.27421 5.84359 5.0821 6.00646 4.97564 6.17434C4.86708 6.34223 4.84498 6.49786 4.84536 6.58975L4.8487 6.65269L4.86875 6.74531C4.89757 6.83686 5.38902 8.29359 8.0272 11.0063C10.6654 13.719 12.2388 14.3855 12.3381 14.4256L12.4467 14.46C12.4901 14.4698 12.564 14.4828 12.6643 14.4828C12.8396 14.4857 13.1048 14.4322 13.3345 14.273C13.5661 14.1152 13.752 13.8786 13.8902 13.558C13.9633 13.3854 14.1161 13.2114 14.2915 13.0941C14.4661 12.974 14.6552 12.9219 14.7571 12.9248L14.8385 12.9346C14.869 12.9429 14.9621 12.9755 15.0774 13.0239C15.4908 13.1947 16.2136 13.5548 16.895 13.9321C17.237 14.121 17.5711 14.3153 17.8559 14.4934C18.1402 14.6703 18.3782 14.8349 18.5106 14.9446C18.5886 15.0097 18.6337 15.0741 18.6671 15.1512C18.7001 15.2279 18.7172 15.3187 18.7172 15.4204C18.7181 15.5796 18.6717 15.7616 18.6095 15.9085C18.579 15.9816 18.5448 16.046 18.5164 16.0923L18.4805 16.1459L18.473 16.1553C18.435 16.194 18.3986 16.2335 18.3381 16.295C18.1331 16.5041 17.7009 16.9108 17.0871 17.2575C16.4724 17.6052 15.6933 17.8882 14.7608 17.8885C14.3144 17.8882 13.8293 17.8241 13.296 17.6634C9.96262 16.6582 7.38247 14.8277 5.47716 12.8684C3.5718 10.9087 1.92785 8.39538 1.34911 5.37838C1.30316 5.1384 1.28265 4.91299 1.28265 4.69987Z" fill="white"/>
</svg>
