<svg width="18" height="23" viewBox="0 0 18 23" fill="none" xmlns="http://www.w3.org/2000/svg">
<path d="M17.3016 2.51006C17.0178 2.34021 16.6824 2.25248 16.3419 2.25248C16.1583 2.25248 15.9731 2.27845 15.7945 2.33109L15.8279 2.32126L4.88352 5.543C4.30688 5.51003 3.77446 5.40612 3.41396 5.26857C3.22036 5.19629 3.07851 5.11557 3.00422 5.05448C2.96667 5.02429 2.94665 5.00043 2.93661 4.98709L2.92993 4.97514L2.92907 4.97442C2.86648 4.66137 2.51431 4.4501 2.14046 4.50135C1.76746 4.55472 1.51458 4.85161 1.57632 5.16534C1.6364 5.46506 1.83 5.70723 2.05613 5.88831C2.39997 6.16067 2.83219 6.33753 3.32205 6.4709C3.81104 6.60145 4.36183 6.68078 4.93847 6.70396L5.07199 6.70957L16.2133 3.42957L16.2483 3.41905C16.2792 3.41061 16.31 3.40643 16.3418 3.40643C16.401 3.40643 16.4586 3.42117 16.5086 3.45063C16.5837 3.49556 16.6288 3.56927 16.6288 3.64645V17.5413C16.6288 17.9906 16.2917 18.3921 15.786 18.5402L4.72399 21.7963L4.70396 21.804C4.63469 21.8286 4.53706 21.8461 4.40857 21.8461C4.16738 21.8483 3.82194 21.7774 3.45893 21.644C2.91481 21.4467 2.33401 21.1154 1.92096 20.8038C1.714 20.648 1.54876 20.4964 1.45279 20.3855C1.41108 20.3377 1.38603 20.3012 1.37268 20.2795C1.37353 20.2507 1.37433 20.2177 1.37519 20.1749C1.38272 19.6562 1.38603 18.046 1.38603 16.0463C1.38603 11.4783 1.37102 4.90219 1.37102 4.90219V4.68953C1.37102 4.58706 1.44862 4.49578 1.56297 4.46209L12.8236 1.12032C13.1816 1.01435 13.3694 0.685116 13.2425 0.384724C13.1173 0.084287 12.7251 -0.0729392 12.368 0.0330762L1.10911 3.37413L1.11077 3.37341C0.44483 3.56923 5.33781e-05 4.09638 5.33781e-05 4.68949V4.90286C5.33781e-05 4.90426 0.00090774 5.31421 0.00256337 6.00206C0.00592803 8.06635 0.0142597 12.6217 0.0142597 16.0463C0.0142597 17.1876 0.0142595 18.2039 0.0108948 18.9592C0.0100403 19.3368 0.00838493 19.6499 0.0067293 19.8801C0.00587478 19.9945 0.00507348 20.0893 0.00336445 20.1601C0.00250993 20.2296 0.00170897 20.2802 0.000854456 20.2907L0 20.3265C0.00502029 20.5574 0.091807 20.7118 0.184415 20.8571C0.352969 21.107 0.588336 21.3317 0.878711 21.5639C1.31265 21.9086 1.8684 22.2525 2.47426 22.5234C3.08091 22.7908 3.73019 22.9958 4.40862 23C4.66984 23 4.93853 22.9628 5.19723 22.8765L5.19809 22.8793L16.2392 19.6288C17.294 19.3186 18 18.4812 18 17.5413V3.64645C18.0001 3.19444 17.7397 2.77119 17.3016 2.51006Z" fill="white"/>
<path d="M3.85628 4.78005C3.91973 4.93027 4.11413 5.00955 4.29358 4.95695L14.274 2.01803C14.4526 1.96539 14.5469 1.80115 14.4844 1.65021C14.4218 1.50072 14.2256 1.42138 14.0471 1.47403L4.06655 4.41223C3.88795 4.46488 3.79283 4.62983 3.85628 4.78005Z" fill="white"/>
</svg>
